<?xml version="1.0" standalone="no"?>
<!DOCTYPE svg PUBLIC "-//W3C//DTD SVG 20010904//EN"
 "http://www.w3.org/TR/2001/REC-SVG-20010904/DTD/svg10.dtd">
<svg version="1.0" xmlns="http://www.w3.org/2000/svg"
 width="94.000000pt" height="94.000000pt" viewBox="0 0 94.000000 94.000000"
 preserveAspectRatio="xMidYMid meet">
<metadata>
Created by potrace 1.14, written by Peter Selinger 2001-2017
</metadata>
<g transform="translate(0.000000,94.000000) scale(0.100000,-0.100000)"
fill="#000000" stroke="none">
<path d="M231 798 c-91 -16 -159 -92 -167 -188 -7 -91 41 -176 169 -303 100
-98 205 -177 235 -177 38 0 94 37 201 135 194 177 252 301 194 422 -17 38 -73
90 -111 104 -74 28 -190 -2 -253 -65 l-26 -26 -18 20 c-51 56 -152 91 -224 78z"/>
</g>
</svg>
